<svg width="25" height="25" viewBox="0 0 25 25" fill="none" xmlns="http://www.w3.org/2000/svg">
<g clip-path="url(#clip0_4057_3499)">
<path fill-rule="evenodd" clip-rule="evenodd" d="M10.904 22.904C5.16517 22.904 0.5 18.2387 0.5 12.4999C0.5 6.76105 5.16517 2.09583 10.904 2.09583C13.5356 2.09583 16.0052 3.05163 17.9292 4.81532C17.2892 5.19374 16.6716 5.6129 16.0776 6.06661C14.6198 4.89051 12.8071 4.24296 10.904 4.24296C6.35589 4.24296 2.64714 7.95177 2.64714 12.4999C2.64714 17.048 6.35589 20.7568 10.904 20.7568C17.2323 20.7568 20.9895 13.9923 18.2676 8.7329C18.6801 8.34928 19.1047 7.97746 19.5405 7.61803C19.6692 7.5119 19.799 7.40676 19.9297 7.30268C20.8402 8.8753 21.3082 10.6584 21.3082 12.4998C21.3081 18.2387 16.6429 22.904 10.904 22.904Z" fill="#34A853"/>
<path fill-rule="evenodd" clip-rule="evenodd" d="M11.1772 17.8484C11.0601 17.8484 10.9625 17.7703 10.9235 17.6727C10.904 17.6337 9.22523 13.3003 6.62908 11.6606C6.12156 11.3483 5.73124 11.0164 5.88737 10.2747C6.04349 9.55244 6.53153 9.14252 7.40988 8.94731C8.97144 8.61545 10.6501 11.0359 11.2748 12.0315C13.461 8.84975 17.8334 3.85262 24.1969 3.26703C24.5039 3.23105 24.6174 3.68609 24.3335 3.81359C24.2359 3.85262 15.1396 8.01043 11.4504 17.6923C11.3919 17.7898 11.2943 17.8484 11.1772 17.8484Z" fill="#34A853"/>
</g>
<defs>
<clipPath id="clip0_4057_3499">
<rect width="24" height="24" fill="white" transform="translate(0.5 0.5)"/>
</clipPath>
</defs>
</svg>
