<svg width="90" height="19" viewBox="0 0 90 19" fill="none" xmlns="http://www.w3.org/2000/svg">
<path d="M7.94502 4.16763C8.20786 3.35867 9.35233 3.35867 9.61517 4.16763L10.5543 7.058C10.6719 7.41978 11.009 7.66472 11.3894 7.66472H14.4285C15.2791 7.66472 15.6327 8.75317 14.9446 9.25313L12.4859 11.0395C12.1782 11.2631 12.0494 11.6594 12.1669 12.0212L13.1061 14.9115C13.3689 15.7205 12.443 16.3932 11.7549 15.8932L9.2962 14.1069C8.98845 13.8833 8.57173 13.8833 8.26399 14.1069L5.80529 15.8932C5.11715 16.3932 4.19126 15.7205 4.45411 14.9115L5.39325 12.0212C5.5108 11.6594 5.38202 11.2631 5.07428 11.0395L2.61558 9.25313C1.92744 8.75317 2.2811 7.66472 3.13169 7.66472H6.1708C6.5512 7.66472 6.88833 7.41978 7.00588 7.058L7.94502 4.16763Z" fill="#FAC800"/>
<path d="M26.0554 4.16763C26.3182 3.35867 27.4627 3.35867 27.7255 4.16763L28.6647 7.058C28.7822 7.41978 29.1193 7.66472 29.4997 7.66472H32.5389C33.3894 7.66472 33.7431 8.75317 33.055 9.25313L30.5963 11.0395C30.2885 11.2631 30.1597 11.6594 30.2773 12.0212L31.2164 14.9115C31.4793 15.7205 30.5534 16.3932 29.8652 15.8932L27.4066 14.1069C27.0988 13.8833 26.6821 13.8833 26.3743 14.1069L23.9156 15.8932C23.2275 16.3932 22.3016 15.7205 22.5645 14.9115L23.5036 12.0212C23.6211 11.6594 23.4924 11.2631 23.1846 11.0395L20.7259 9.25313C20.0378 8.75317 20.3915 7.66472 21.242 7.66472H24.2812C24.6615 7.66472 24.9987 7.41978 25.1162 7.058L26.0554 4.16763Z" fill="#FAC800"/>
<path d="M44.1628 4.16763C44.4256 3.35867 45.5701 3.35867 45.8329 4.16763L46.7721 7.058C46.8896 7.41978 47.2268 7.66472 47.6072 7.66472H50.6463C51.4969 7.66472 51.8505 8.75317 51.1624 9.25313L48.7037 11.0395C48.3959 11.2631 48.2672 11.6594 48.3847 12.0212L49.3239 14.9115C49.5867 15.7205 48.6608 16.3932 47.9727 15.8932L45.514 14.1069C45.2062 13.8833 44.7895 13.8833 44.4818 14.1069L42.0231 15.8932C41.3349 16.3932 40.409 15.7205 40.6719 14.9115L41.611 12.0212C41.7286 11.6594 41.5998 11.2631 41.2921 11.0395L38.8334 9.25313C38.1452 8.75317 38.4989 7.66472 39.3495 7.66472H42.3886C42.769 7.66472 43.1061 7.41978 43.2237 7.058L44.1628 4.16763Z" fill="#FAC800"/>
<path d="M62.2751 4.16763C62.5379 3.35867 63.6824 3.35867 63.9453 4.16763L64.8844 7.058C65.0019 7.41978 65.3391 7.66472 65.7195 7.66472H68.7586C69.6092 7.66472 69.9628 8.75317 69.2747 9.25313L66.816 11.0395C66.5082 11.2631 66.3795 11.6594 66.497 12.0212L67.4362 14.9115C67.699 15.7205 66.7731 16.3932 66.085 15.8932L63.6263 14.1069C63.3185 13.8833 62.9018 13.8833 62.5941 14.1069L60.1354 15.8932C59.4472 16.3932 58.5213 15.7205 58.7842 14.9115L59.7233 12.0212C59.8409 11.6594 59.7121 11.2631 59.4044 11.0395L56.9457 9.25313C56.2575 8.75317 56.6112 7.66472 57.4618 7.66472H60.5009C60.8813 7.66472 61.2184 7.41978 61.336 7.058L62.2751 4.16763Z" fill="#FAC800"/>
<path d="M80.3845 4.16763C80.6473 3.35867 81.7918 3.35867 82.0546 4.16763L82.9938 7.058C83.1113 7.41978 83.4484 7.66472 83.8288 7.66472H86.868C87.7185 7.66472 88.0722 8.75317 87.3841 9.25313L84.9254 11.0395C84.6176 11.2631 84.4888 11.6594 84.6064 12.0212L85.5455 14.9115C85.8084 15.7205 84.8825 16.3932 84.1943 15.8932L81.7357 14.1069C81.4279 13.8833 81.0112 13.8833 80.7034 14.1069L78.2447 15.8932C77.5566 16.3932 76.6307 15.7205 76.8936 14.9115L77.8327 12.0212C77.9502 11.6594 77.8215 11.2631 77.5137 11.0395L75.055 9.25313C74.3669 8.75317 74.7206 7.66472 75.5711 7.66472H78.6103C78.9907 7.66472 79.3278 7.41978 79.4453 7.058L80.3845 4.16763Z" fill="#FAC800"/>
</svg>
